<svg width="341.747221" height="497.788791" xmlns="http://www.w3.org/2000/svg" preserveAspectRatio="xMidYMid meet" version="1.0">
 <metadata>Created by Svg.la</metadata>

 <g fill="#a8e237">
  <title>Layer 1</title>
  <path id="svg_2" d="m72.02519,2.69999c-1,1.6 -4.1,6.1 -7,10.1c-5.9,8.2 -8.8,15.2 -9.8,23.5c-0.4,3.3 0,17.5 1,33.1c1.7,25.7 1.7,28 0.2,38.2c-1.2,7.7 -1.7,17.4 -1.7,33c0,24.4 1,32.3 6.2,51.2c2.6,9.7 3.9,12.5 8.6,19c8.4,11.9 21.4,25.5 31.9,33.5c13.5,10.2 15.6,11.7 26.6,18.2l9.8,5.8l-0.7,4c-1.8,11 -8.2,23.6 -24.7,49c-10.9,16.6 -11.6,17.2 -23.3,18.2c-9.3,0.8 -14.6,2.2 -22.6,5.8c-5,2.2 -6.8,3.5 -6.8,4.9c0,1.8 0.6,1.9 9.8,1.3c5.3,-0.3 14.7,-1 20.7,-1.6c24.9,-2.1 83.1,-0.4 94,2.7c3.3,0.9 7.9,1.6 10.3,1.5c2.6,-0.1 5.4,0.5 7.2,1.6c3.1,1.8 4.6,1.4 3.7,-1.2c-0.9,-2.1 -9,-7.1 -15.7,-9.6c-3,-1.1 -10.1,-2.7 -15.7,-3.4c-5.6,-0.7 -10.7,-1.6 -11.3,-2c-1.8,-1.1 -1.1,-4.9 2.6,-13.5c1.9,-4.7 6.4,-17.2 10,-27.9c3.5,-10.7 7.1,-20.2 7.9,-21.1c1.2,-1.3 2.4,-1.6 4.8,-1c4.9,1.1 6.8,2.3 12.3,8.2c5.9,6.3 6.6,7.9 9.4,22.3c2.2,11.4 6.7,25.9 12.7,40.5c1.9,4.7 10,25.8 18,47c7.9,21.2 16,41.6 18,45.4c10.7,21.2 35.7,50.7 47.9,56.6c5.4,2.7 11.9,2.3 18.1,-0.9c3.8,-1.9 12.5,-10.3 15.7,-15.1c3.4,-5.2 1.5,-18 -6.1,-41.5c-5.4,-16.5 -8.7,-23.4 -18,-37.5c-3.8,-5.8 -9.8,-15.5 -13.5,-21.5c-19.1,-31.9 -26,-43.7 -29.6,-51c-3.9,-7.6 -4,-8 -2.1,-8.9c1.6,-0.8 1.9,-1.9 1.9,-7.3c0,-7 -2.3,-19.8 -4.6,-25.3c-3.3,-7.8 -7.6,-10.3 -21,-12c-23.5,-2.9 -49.1,-10.2 -73.8,-21c-31.7,-13.8 -54.2,-31.1 -63.3,-48.5c-4.7,-9.2 -13.4,-34.3 -15.7,-45.8c-2.9,-14 0.5,-40.9 5.6,-44.1c2.3,-1.4 5,1.2 8.9,8.5c1.7,3.1 7.2,10.8 12.2,17c7,8.7 11.1,12.7 17.2,16.9c4.3,3 11.3,8.7 15.4,12.5c11.6,10.8 21.5,18.5 34.6,27.1c13.1,8.5 21.3,12.5 35,17.4c8.9,3.1 30.7,9.1 31.3,8.5c0.2,-0.1 -0.7,-3.1 -1.8,-6.6c-3,-8.7 -13,-28.7 -24.6,-48.9c-2.3,-4.1 -6.5,-12.7 -9.2,-19.1c-10.8,-25.1 -19.9,-36.5 -49.4,-61.2c-6.4,-5.4 -13.2,-11.5 -15.1,-13.6c-5.2,-5.8 -10.1,-15.2 -17.7,-34.1c-9.6,-24 -14.1,-30.9 -23.9,-37.2c-4.5,-2.8 -4.5,-2.8 -21.8,-2.8l-17.3,0l-1.7,2.7zm20.8,20.2c5.2,5.2 3.5,14.7 -3.4,19c-11.2,6.9 -23.9,-5.5 -16.8,-16.3c2.7,-4.1 5.7,-5.5 11.9,-5.6c4.6,0 5.8,0.4 8.3,2.9zm74.8,249.7c4,1.3 -3.6,28.1 -16.9,60.1c-1.8,4.4 -4.9,5.4 -19.9,6l-14.1,0.6l0,-3.5c0,-2.7 1.4,-5.6 5.7,-11.9c7.9,-11.6 21.1,-34.9 25.3,-44.7l3.5,-8.1l7.5,0.5c4.1,0.3 8.1,0.8 8.9,1z"/>
  <path stroke="null" id="svg_3" d="m51.12245,12.7356c-2.5,2.52781 -9.8,8.1901 -16.2,12.63905c-12,8.1901 -22.2,16.98688 -25.9,22.34583c-4.1,5.7634 -0.76349,7.6425 14.03651,-1.86206c4.7,-2.93226 12.16349,-3.67228 16.46349,-5.99787l8.17397,-2.49948l1.92603,-15.32313c1.2,-3.64005 3.2,-8.39233 4.5,-10.31346c1.2,-2.02225 2,-3.64005 1.8,-3.64005c-0.2,0 -2.4,2.12336 -4.8,4.65117z"/>
 </g>
</svg>